HIERARCHY
ROOT Hips
{
	OFFSET 0.000000 0.000000 0.000000
	CHANNELS 6 Xposition Yposition Zposition Zrotation Yrotation Xrotation 
	JOINT LHipJoint
	{
		OFFSET 0.000000 0.000000 0.000000
		CHANNELS 3 Zrotation Yrotation Xrotation
		JOINT LeftUpLeg
		{
			OFFSET 1.363060 -1.794630 0.839290
			CHANNELS 3 Zrotation Yrotation Xrotation
			JOINT LeftLeg
			{
				OFFSET 2.448110 -6.726130 0.000000
				CHANNELS 3 Zrotation Yrotation Xrotation
				JOINT LeftFoot
				{
					OFFSET 2.562200 -7.039590 0.000000
					CHANNELS 3 Zrotation Yrotation Xrotation
					JOINT LeftToeBase
					{
						OFFSET 0.157640 -0.433110 2.322550
						CHANNELS 3 Zrotation Yrotation Xrotation
						End Site
						{
							OFFSET 0.000000 0.000000 0.000000
						}
					}
				}
			}
		}
	}
	JOINT RHipJoint
	{
		OFFSET 0.000000 0.000000 0.000000
		CHANNELS 3 Zrotation Yrotation Xrotation
		JOINT RightUpLeg
		{
			OFFSET -1.305520 -1.794630 0.839290
			CHANNELS 3 Zrotation Yrotation Xrotation
			JOINT RightLeg
			{
				OFFSET -2.542530 -6.985550 0.000000
				CHANNELS 3 Zrotation Yrotation Xrotation
				JOINT RightFoot
				{
					OFFSET -2.568260 -7.056230 0.000000
					CHANNELS 3 Zrotation Yrotation Xrotation
					JOINT RightToeBase
					{
						OFFSET -0.164730 -0.452590 2.363150
						CHANNELS 3 Zrotation Yrotation Xrotation
						End Site
						{
							OFFSET 0.000000 0.000000 0.000000
						}
					}
				}
			}
		}
	}
	JOINT LowerBack
	{
		OFFSET 0.000000 0.000000 0.000000
		CHANNELS 3 Zrotation Yrotation Xrotation
		JOINT Spine
		{
			OFFSET 0.028270 2.035590 -0.193380
			CHANNELS 3 Zrotation Yrotation Xrotation
			JOINT Spine1
			{
				OFFSET 0.056720 2.048850 -0.042750
				CHANNELS 3 Zrotation Yrotation Xrotation
				JOINT Neck
				{
					OFFSET 0.000000 0.000000 0.000000
					CHANNELS 3 Zrotation Yrotation Xrotation
					JOINT Neck1
					{
						OFFSET -0.054170 1.746240 0.172020
						CHANNELS 3 Zrotation Yrotation Xrotation
						JOINT Head
						{
							OFFSET 0.104070 1.761360 -0.123970
							CHANNELS 3 Zrotation Yrotation Xrotation
							End Site
							{
								OFFSET 0.000000 0.000000 0.000000
							}
						}
					}
				}
				JOINT LeftShoulder
				{
					OFFSET 0.000000 0.000000 0.000000
					CHANNELS 3 Zrotation Yrotation Xrotation
					JOINT LeftArm
					{
						OFFSET 3.362410 1.200890 -0.311210
						CHANNELS 3 Zrotation Yrotation Xrotation
						JOINT LeftForeArm
						{
							OFFSET 4.983000 -0.000000 -0.000000
							CHANNELS 3 Zrotation Yrotation Xrotation
							JOINT LeftHand
							{
								OFFSET 3.483560 -0.000000 -0.000000
								CHANNELS 3 Zrotation Yrotation Xrotation
								JOINT LeftFingerBase
								{
									OFFSET 0.000000 0.000000 0.000000
									CHANNELS 3 Zrotation Yrotation Xrotation
									JOINT LeftHandIndex1
									{
										OFFSET 0.715260 -0.000000 -0.000000
										CHANNELS 3 Zrotation Yrotation Xrotation
										End Site
										{
											OFFSET 0.000000 0.000000 0.000000
										}
									}
								}
								JOINT LThumb
								{
									OFFSET 0.000000 0.000000 0.000000
									CHANNELS 3 Zrotation Yrotation Xrotation
									End Site
									{
										OFFSET 0.000000 0.000000 0.000000
									}
								}
							}
						}
					}
				}
				JOINT RightShoulder
				{
					OFFSET 0.000000 0.000000 0.000000
					CHANNELS 3 Zrotation Yrotation Xrotation
					JOINT RightArm
					{
						OFFSET -3.136600 1.374050 -0.404650
						CHANNELS 3 Zrotation Yrotation Xrotation
						JOINT RightForeArm
						{
							OFFSET -5.241900 -0.000000 -0.000000
							CHANNELS 3 Zrotation Yrotation Xrotation
							JOINT RightHand
							{
								OFFSET -3.444170 -0.000000 -0.000000
								CHANNELS 3 Zrotation Yrotation Xrotation
								JOINT RightFingerBase
								{
									OFFSET 0.000000 0.000000 0.000000
									CHANNELS 3 Zrotation Yrotation Xrotation
									JOINT RightHandIndex1
									{
										OFFSET -0.622530 -0.000000 -0.000000
										CHANNELS 3 Zrotation Yrotation Xrotation
										End Site
										{
											OFFSET 0.000000 0.000000 0.000000
										}
									}
								}
								JOINT RThumb
								{
									OFFSET 0.000000 0.000000 0.000000
									CHANNELS 3 Zrotation Yrotation Xrotation
									End Site
									{
										OFFSET 0.000000 0.000000 0.000000
									}
								}
							}
						}
					}
				}
			}
		}
	}
}
MOTION
Frames: 6
Frame Time: 0.008333
-0.721827 18.369001 5.268308 -0.493418 -3.400404 0.132725 0.392049 4.240426 4.807229 -13.229975 -11.181289 -4.774205 0.640071 6.405108 21.736048 -1.450652 11.039222 -18.069310 7.812600 -15.979600 -51.884700 -4.241203 -4.645689 3.323991 2.757203 2.016103 -1.345385 0.025631 0.937872 1.485584 0.356814 -0.619662 5.716615 0.000000 0.000000 0.000000 3.964326 2.656042 -7.117379 -9.249813 3.928796 36.579387 0.907000 1.891255 -12.401084 0.604513 -1.955878 -0.538980 6.934004 -1.853527 4.952436 1.694100 -0.978700 2.804100 6.363993 -3.931708 -1.667104 -53.558302 -27.969385 48.761367 155.742427 -31.103652 -112.831318 -1.282892 -0.431946 -46.563262 28.002267 -24.051396 -13.039200 -7.125000 0.000000 0.000000 -0.142700 2.430800 0.136500 -7.476790 5.075489 -1.409139 59.054156 21.539343 44.494765 -157.189720 27.928814 -113.512000 -0.653907 1.938049 -24.721930 -13.410449 -31.600004 7.656700 7.125000 0.000000 0.000000 23.237000 -62.915300 -10.399200 
-0.722023 18.368413 5.270464 -0.414042 -3.408994 0.147613 0.376083 4.233542 4.799500 -13.300224 -11.140892 -4.781065 0.634698 6.397565 21.708411 -1.469102 11.097551 -18.031914 7.821800 -15.986600 -51.918400 -4.258452 -4.646705 3.314375 2.756506 2.015584 -1.345460 0.025971 0.937349 1.485357 0.356690 -0.620093 5.716171 0.000000 0.000000 0.000000 3.957017 2.658904 -7.102196 -9.418304 3.958914 36.464247 0.966004 1.895931 -12.427978 0.645335 -1.948924 -0.462286 6.967144 -1.839984 5.022126 1.695900 -0.967900 2.813100 6.372971 -3.936331 -1.666212 -53.782967 -27.986101 48.793395 155.680105 -31.171077 -112.796699 -1.266100 -0.443859 -47.172191 28.127509 -24.031182 -13.085900 -7.125000 0.000000 0.000000 -0.068300 2.433600 0.065400 -7.441412 5.095917 -1.423363 59.277159 21.593469 44.473165 -157.136069 27.974850 -113.471592 -0.681188 1.946608 -25.008554 -13.431495 -31.921955 7.730400 7.125000 0.000000 0.000000 23.561200 -63.226600 -10.724800 
-0.721827 18.368021 5.272228 -0.346325 -3.428529 0.162826 0.351357 4.226234 4.791337 -13.344204 -11.079915 -4.794074 0.633750 6.396991 21.696956 -1.462519 11.063043 -18.000925 7.816500 -15.982600 -51.899200 -4.284123 -4.645487 3.298240 2.754722 2.015381 -1.345047 0.026449 0.937246 1.485375 0.356699 -0.619998 5.715677 0.000000 0.000000 0.000000 4.011187 2.670033 -7.072642 -9.678307 4.014951 36.308712 1.035340 1.902198 -12.458064 0.870891 -1.965262 -0.364504 6.807179 -1.848277 5.092418 1.630900 -0.967100 2.816400 6.380035 -3.937847 -1.662034 -54.014345 -28.002541 48.844682 155.641698 -31.214259 -112.777114 -1.246424 -0.454895 -47.747447 28.206268 -23.919320 -13.062600 -7.125000 0.000000 0.000000 -0.009000 2.548200 0.008600 -7.398006 5.119509 -1.440208 59.517306 21.690557 44.421526 -157.044650 28.058335 -113.413668 -0.705241 1.943444 -25.208113 -13.356586 -32.203981 7.734600 7.125000 0.000000 0.000000 23.951100 -63.463800 -11.045800 
-0.720847 18.367629 5.274972 -0.353885 -3.460983 0.179951 0.337095 4.224083 4.786794 -13.329515 -11.105571 -4.787174 0.633728 6.404151 21.707456 -1.463349 11.077237 -18.028949 7.812800 -15.979800 -51.885500 -4.298884 -4.641410 3.285365 2.753217 2.015471 -1.344261 0.026722 0.937518 1.485560 0.356840 -0.619581 5.715486 0.000000 0.000000 0.000000 4.114493 2.679634 -7.076393 -9.832290 4.049168 36.186446 1.046753 1.901288 -12.470172 1.116532 -1.996576 -0.291667 6.572580 -1.879442 5.151566 1.545200 -0.978900 2.820500 6.371098 -3.945663 -1.660948 -54.247922 -28.082656 48.879487 155.604224 -31.247961 -112.765610 -1.209461 -0.469329 -48.419285 28.247008 -23.492564 -12.856500 -7.125000 0.000000 0.000000 0.071000 3.026600 -0.067200 -7.370654 5.137545 -1.456514 59.767990 21.770255 44.413050 -156.952754 28.140533 -113.358484 -0.717913 1.946448 -25.339515 -13.382323 -32.453430 7.797000 7.125000 0.000000 0.000000 24.193400 -63.700400 -11.297800 
-0.719475 18.367629 5.278795 -0.447560 -3.473332 0.175966 0.348657 4.230519 4.789653 -13.249770 -11.137665 -4.762426 0.636523 6.412687 21.731151 -1.456393 11.069636 -18.085794 7.820000 -15.985300 -51.911800 -4.287063 -4.636347 3.285598 2.753538 2.015336 -1.343536 0.026572 0.937605 1.485537 0.356942 -0.619590 5.715741 0.000000 0.000000 0.000000 4.191744 2.670662 -7.126623 -9.719152 4.012475 36.151822 0.976509 1.884917 -12.468430 1.148362 -2.017696 -0.218436 6.514883 -1.908167 5.152079 1.524300 -0.993400 2.816400 6.341028 -3.964728 -1.671591 -54.576195 -28.189948 48.934613 155.517795 -31.327652 -112.726981 -1.173287 -0.480622 -49.122710 28.261321 -23.137840 -12.671600 -7.125000 0.000000 0.000000 0.121700 3.430600 -0.114200 -7.365088 5.144650 -1.473039 59.970813 21.825770 44.415616 -156.868349 28.223759 -113.300521 -0.727003 1.976992 -25.399324 -13.607073 -32.898917 8.028400 7.125000 0.000000 0.000000 24.442300 -64.188700 -11.698900 
-0.717711 18.366845 5.283401 -0.511415 -3.449303 0.119383 0.378582 4.240332 4.797456 -13.222105 -11.130718 -4.696925 0.642703 6.416261 21.756517 -1.430869 10.987534 -18.131126 7.816000 -15.982200 -51.897100 -4.255801 -4.634267 3.298684 2.755840 2.014482 -1.343404 0.026170 0.936916 1.484979 0.356801 -0.620628 5.716162 0.000000 0.000000 0.000000 4.142591 2.639659 -7.158557 -9.410218 3.916610 36.199720 0.904989 1.864337 -12.522871 0.936962 -2.009459 -0.306008 6.628221 -1.925285 5.309061 1.573800 -0.998700 2.868500 6.301881 -3.983219 -1.685076 -55.037611 -28.228090 49.067227 155.405111 -31.441537 -112.668610 -1.150573 -0.483844 -49.597991 28.275629 -22.975962 -12.587900 -7.125000 0.000000 0.000000 0.145200 3.614200 -0.135800 -7.369190 5.137943 -1.488196 60.046946 21.918824 44.145298 -156.782913 28.331290 -113.217477 -0.805187 1.978960 -26.225694 -13.504810 -33.557043 8.080100 7.125000 0.000000 0.000000 25.361500 -64.768400 -12.506500 
